<svg id="f45fe888-e041-4782-97d0-977219f8cb5c" data-name="Layer 1" xmlns="http://www.w3.org/2000/svg" viewBox="0 0 270.4 100"><defs><style>.b134a931-f80d-42cc-b837-2cfb7e481efb{fill:#f05138;}.e60a6e8c-abc1-4134-96bb-c0036a49319e{fill:#fff;}</style></defs><g id="fa6d17c5-8978-4639-ad33-75d58d505efb" data-name="Layer 2"><g id="acca8bf0-be2e-448c-8666-90dc515209cb" data-name="Layer 1-2"><path class="b134a931-f80d-42cc-b837-2cfb7e481efb" d="M50.2,99.8c-7.9-.1-15.8-.2-23.7-1.8A30.8,30.8,0,0,1,2.2,73.2a128.7,128.7,0,0,1,0-46.3C4.8,13.2,13.4,4.8,26.9,1.8S51-.3,63.2.3C70.1.7,76.8,2,83,5.4,91.2,9.9,95.9,17,98,26c2.6,11.7,2.2,23.7,1.7,35.6a55.2,55.2,0,0,1-2.9,16.2A29.2,29.2,0,0,1,78.3,96.5c-7.2,2.7-14.7,3-22.3,3.3Z" transform="translate(-0.1 0.2)"/></g></g><path class="e60a6e8c-abc1-4134-96bb-c0036a49319e" d="M12.5,33.8l1.3.3a2.4,2.4,0,0,1,.9.8L24.9,50.6H22.8L33.3,34.9a2.4,2.4,0,0,1,2-1.1,2.8,2.8,0,0,1,1.9.7,2.6,2.6,0,0,1,.8,1.9V60.7a2.5,2.5,0,0,1-.8,1.8,2.4,2.4,0,0,1-1.9.7,2.6,2.6,0,0,1-1.9-.7,2.4,2.4,0,0,1-.7-1.8V40.9l1.6.4-8.5,13a3.9,3.9,0,0,1-1,.8,1.1,1.1,0,0,1-1.1.3,1.1,1.1,0,0,1-1.1-.3,3.9,3.9,0,0,1-1-.8l-8-12.6,1.1-2.3V60.7a2.4,2.4,0,0,1-.7,1.8,2.1,2.1,0,0,1-1.7.7,2.4,2.4,0,0,1-1.8-.7,2.8,2.8,0,0,1-.6-1.8V36.4a2.4,2.4,0,0,1,.7-1.8A2.9,2.9,0,0,1,12.5,33.8Z" transform="translate(-0.1 0.2)"/><path class="e60a6e8c-abc1-4134-96bb-c0036a49319e" d="M62,40.4a2.4,2.4,0,0,1,1.8.7,2.3,2.3,0,0,1,.7,1.8V60.7a2.5,2.5,0,1,1-5,0V58.6l.9.4a2.2,2.2,0,0,1-.6,1.3,7.8,7.8,0,0,1-1.6,1.5,5.8,5.8,0,0,1-2.3,1.3,7.7,7.7,0,0,1-3,.6,9.9,9.9,0,0,1-5.3-1.5A10.8,10.8,0,0,1,43.9,58a12.6,12.6,0,0,1-1.3-6,12.6,12.6,0,0,1,1.3-6,10.8,10.8,0,0,1,3.7-4.2,10,10,0,0,1,5.1-1.4,8.8,8.8,0,0,1,3.3.5,9.8,9.8,0,0,1,2.7,1.4A6.9,6.9,0,0,1,60.4,44a2.7,2.7,0,0,1,.6,1.4l-1.5.6V42.9A2.4,2.4,0,0,1,62,40.4ZM53.5,59a6,6,0,0,0,3.3-.9,5.8,5.8,0,0,0,2.1-2.5,8.5,8.5,0,0,0,0-7.2,6.4,6.4,0,0,0-2.1-2.5,6,6,0,0,0-3.3-.9,5.9,5.9,0,0,0-3.2.9,6.4,6.4,0,0,0-2.1,2.5,8.5,8.5,0,0,0,0,7.2,5.8,5.8,0,0,0,2.1,2.5A5.9,5.9,0,0,0,53.5,59Z" transform="translate(-0.1 0.2)"/><path class="e60a6e8c-abc1-4134-96bb-c0036a49319e" d="M88.2,32.2a2.4,2.4,0,0,1,1.8.7,2.9,2.9,0,0,1,.7,1.8v26a2.9,2.9,0,0,1-.7,1.8,2.4,2.4,0,0,1-1.8.7,2.1,2.1,0,0,1-1.8-.7,2.5,2.5,0,0,1-.8-1.8V58.6l1,.4a2.2,2.2,0,0,1-.6,1.3,7.8,7.8,0,0,1-1.6,1.5A7,7,0,0,1,82,63.1a7.3,7.3,0,0,1-3,.6,9.5,9.5,0,0,1-5.2-1.5A10.1,10.1,0,0,1,70.1,58a13.6,13.6,0,0,1,0-12,10.1,10.1,0,0,1,3.7-4.2,9.8,9.8,0,0,1,5.1-1.4,8.8,8.8,0,0,1,3.3.5,9.2,9.2,0,0,1,2.6,1.4A5.5,5.5,0,0,1,86.5,44a3,3,0,0,1,.7,1.4l-1.6.6V34.7a2.5,2.5,0,0,1,.8-1.8A2.1,2.1,0,0,1,88.2,32.2ZM79.7,59a5.7,5.7,0,0,0,3.2-.9,6,6,0,0,0,2.2-2.5,8.5,8.5,0,0,0,0-7.2,6.7,6.7,0,0,0-2.2-2.5,6.1,6.1,0,0,0-6.4,0,6.7,6.7,0,0,0-2.2,2.5,8.5,8.5,0,0,0,0,7.2,6,6,0,0,0,2.2,2.5A5.7,5.7,0,0,0,79.7,59Z" transform="translate(-0.1 0.2)"/><path d="M111.7,33.8a2.7,2.7,0,0,1,1.2.3,2.1,2.1,0,0,1,1,.8l10.2,15.7H122l10.5-15.7a2.5,2.5,0,0,1,3.8-.4,2.2,2.2,0,0,1,.8,1.9V60.7a2.4,2.4,0,0,1-.7,1.8,2.4,2.4,0,0,1-1.9.7,2.6,2.6,0,0,1-1.9-.7,2.4,2.4,0,0,1-.7-1.8V40.9l1.6.4-8.5,13a3.9,3.9,0,0,1-1,.8,1.2,1.2,0,0,1-1.1.3,1.1,1.1,0,0,1-1.1-.3,3.9,3.9,0,0,1-1-.8l-8-12.6,1.1-2.3V60.7a2.4,2.4,0,0,1-.7,1.8,2.1,2.1,0,0,1-1.8.7,2.2,2.2,0,0,1-1.7-.7,2.8,2.8,0,0,1-.6-1.8V36.4a2.4,2.4,0,0,1,.7-1.8A2.7,2.7,0,0,1,111.7,33.8Z" transform="translate(-0.1 0.2)"/><path d="M161.2,40.4a2.4,2.4,0,0,1,1.8.7,2.3,2.3,0,0,1,.7,1.8V60.7a2.5,2.5,0,1,1-5,0V58.6l.9.4a2.2,2.2,0,0,1-.6,1.3,7.8,7.8,0,0,1-1.6,1.5,6.2,6.2,0,0,1-2.4,1.3,7.2,7.2,0,0,1-2.9.6,9.9,9.9,0,0,1-5.3-1.5,10.8,10.8,0,0,1-3.7-4.2,12.6,12.6,0,0,1-1.3-6,12.6,12.6,0,0,1,1.3-6,10.8,10.8,0,0,1,3.7-4.2,9.8,9.8,0,0,1,5.1-1.4,8.8,8.8,0,0,1,3.3.5,11.5,11.5,0,0,1,2.7,1.4,6.9,6.9,0,0,1,1.7,1.7,2.7,2.7,0,0,1,.6,1.4l-1.5.6V42.9a2.4,2.4,0,0,1,2.5-2.5ZM152.7,59a5.7,5.7,0,0,0,3.2-.9,5.4,5.4,0,0,0,2.2-2.5,8.5,8.5,0,0,0,0-7.2,5.9,5.9,0,0,0-2.2-2.5,6.1,6.1,0,0,0-6.4,0,6.4,6.4,0,0,0-2.1,2.5,7.3,7.3,0,0,0-.8,3.6,7.3,7.3,0,0,0,.8,3.6,5.8,5.8,0,0,0,2.1,2.5A5.7,5.7,0,0,0,152.7,59Z" transform="translate(-0.1 0.2)"/><path d="M179,40.4a13.2,13.2,0,0,1,4.1.5,6.7,6.7,0,0,1,2.8,1.4,2.6,2.6,0,0,1,1,2.1,3,3,0,0,1-.5,1.6,1.7,1.7,0,0,1-1.5.7,2,2,0,0,1-1.1-.2,2,2,0,0,1-.8-.4l-.8-.6a3.3,3.3,0,0,0-1.3-.4h-1.2a7,7,0,0,0-3.7.9,6.2,6.2,0,0,0-2.3,2.5,8.3,8.3,0,0,0-.8,3.6,6.9,6.9,0,0,0,.9,3.6,6,6,0,0,0,2.2,2.5,6.4,6.4,0,0,0,3.4.9h1.8a3.4,3.4,0,0,0,1.2-.4,4.1,4.1,0,0,0,1.1-.7,2.6,2.6,0,0,1,1.4-.4,2.4,2.4,0,0,1,1.7.7,3.4,3.4,0,0,1,.5,1.7,2.4,2.4,0,0,1-1.1,1.9,8.1,8.1,0,0,1-3.1,1.4,14.2,14.2,0,0,1-4.2.6,10.6,10.6,0,0,1-5.7-1.6,10.3,10.3,0,0,1-3.8-4.2,13.8,13.8,0,0,1-1.3-5.9,12.7,12.7,0,0,1,1.4-6,11.3,11.3,0,0,1,3.9-4.2A12.1,12.1,0,0,1,179,40.4Z" transform="translate(-0.1 0.2)"/><path d="M202.6,40.4a7,7,0,0,1,4.6,1.3,6,6,0,0,1,2.1,3.4,18.6,18.6,0,0,1,.6,4.8V60.7a2.5,2.5,0,1,1-5,0V49.9a10.1,10.1,0,0,0-.3-2.5,4.6,4.6,0,0,0-1.3-1.8,4.2,4.2,0,0,0-2.5-.6,6,6,0,0,0-2.7.6,4.8,4.8,0,0,0-1.7,1.8,5.4,5.4,0,0,0-.6,2.5V60.7a2.5,2.5,0,1,1-5,0v-26a2.5,2.5,0,1,1,5,0V45.1h-.6l1-1.5a8.7,8.7,0,0,1,1.7-1.6,10.3,10.3,0,0,1,2.1-1.1A7.5,7.5,0,0,1,202.6,40.4Z" transform="translate(-0.1 0.2)"/><path d="M217.6,38a3.3,3.3,0,0,1-2-.4,2.1,2.1,0,0,1-.6-1.7v-.8a1.8,1.8,0,0,1,.6-1.6,3.7,3.7,0,0,1,2-.5,3.6,3.6,0,0,1,2.1.5,2,2,0,0,1,.6,1.6v.8c0,.9-.2,1.4-.7,1.7A3.5,3.5,0,0,1,217.6,38Zm2.5,22.7a2.5,2.5,0,1,1-5,0V43.3a2.5,2.5,0,1,1,5,0Z" transform="translate(-0.1 0.2)"/><path d="M237.3,40.4c2.1,0,3.7.4,4.7,1.3a6.9,6.9,0,0,1,2.3,3.4,18.6,18.6,0,0,1,.6,4.8V60.7a2.5,2.5,0,0,1-.8,1.8,2.1,2.1,0,0,1-1.8.7,2.4,2.4,0,0,1-1.8-.7,2.9,2.9,0,0,1-.7-1.8V49.9a10.1,10.1,0,0,0-.3-2.5,4.6,4.6,0,0,0-1.3-1.8,4.9,4.9,0,0,0-2.7-.6,6.1,6.1,0,0,0-2.8.6,6.2,6.2,0,0,0-1.8,1.8,5.4,5.4,0,0,0-.6,2.5V60.7a2.5,2.5,0,1,1-5,0V43.3a2.5,2.5,0,1,1,5,0v1.8h-.6a7.2,7.2,0,0,1,1.1-1.5,8.7,8.7,0,0,1,1.7-1.6,9,9,0,0,1,2.2-1.1A7.5,7.5,0,0,1,237.3,40.4Z" transform="translate(-0.1 0.2)"/><path d="M260.7,63.7a12.1,12.1,0,0,1-6.2-1.5,9.9,9.9,0,0,1-4-4.1,11.1,11.1,0,0,1-1.4-5.8,12.9,12.9,0,0,1,1.5-6.4,10.5,10.5,0,0,1,4-4.1,9.9,9.9,0,0,1,5.2-1.4,9.4,9.4,0,0,1,4.1.8,11.6,11.6,0,0,1,3.4,2.4,13.8,13.8,0,0,1,2.3,3.6,10.4,10.4,0,0,1,.9,4.3,2.5,2.5,0,0,1-.8,1.6,2.8,2.8,0,0,1-1.8.6h-16l-1.3-4.2H266l-.9.9V49.3a3.4,3.4,0,0,0-.9-2.2,4.9,4.9,0,0,0-1.9-1.6,7,7,0,0,0-2.5-.5,8.5,8.5,0,0,0-2.3.3,4.5,4.5,0,0,0-1.9,1.1,9.1,9.1,0,0,0-1.3,2.2,10.9,10.9,0,0,0-.4,3.4,7.4,7.4,0,0,0,.9,3.8,6.4,6.4,0,0,0,2.5,2.4,5.8,5.8,0,0,0,3.1.8,8.6,8.6,0,0,0,2.5-.2l1.5-.6,1-.6a2.8,2.8,0,0,1,1.5-.4,2.1,2.1,0,0,1,2.1,2.1,2.6,2.6,0,0,1-1.2,2,8.5,8.5,0,0,1-3,1.7A14.7,14.7,0,0,1,260.7,63.7Z" transform="translate(-0.1 0.2)"/></svg>